<svg width="207" height="29" viewBox="0 0 207 29" fill="none" xmlns="http://www.w3.org/2000/svg">
<path d="M11.8411 19.1154C11.8411 21.1692 11.4652 22.5966 10.7084 23.4335C9.95163 24.2704 8.75208 24.6915 7.07889 24.6915C6.0766 24.6871 5.08551 24.481 4.16496 24.0856C3.32657 23.7427 2.52174 23.3233 1.76071 22.8328L0 26.6939C0.886303 27.3535 1.86912 27.873 2.91393 28.2343C4.348 28.7578 5.86597 29.0153 7.39293 28.9942C8.95956 29.0426 10.5208 28.7881 11.9904 28.2445C13.1115 27.8113 14.1061 27.1053 14.8837 26.1907C15.6117 25.3109 16.1278 24.2763 16.3921 23.1665C16.6866 21.946 16.8301 20.6941 16.8194 19.4389V1.16H11.8411V19.1154Z" fill="white"/>
<path d="M34.016 24.5198C33.5332 24.622 33.0434 24.6886 32.5507 24.719C31.8971 24.7714 31.2804 24.8028 30.6901 24.8028C29.0614 24.8028 27.9176 24.3207 27.2692 23.3564C26.6209 22.3921 26.2836 20.7884 26.2836 18.5454V7.54001H21.4607V19.2896C21.4488 20.6058 21.5975 21.9186 21.9034 23.1992C22.1606 24.3159 22.6588 25.3638 23.3635 26.2702C24.0866 27.1563 25.0243 27.8451 26.0886 28.2721C27.4312 28.7917 28.8652 29.0376 30.3053 28.9954C31.9502 29.009 33.5934 28.8863 35.2178 28.6285C36.7148 28.377 37.9288 28.1306 38.86 27.8896V7.55573H34.016V24.5198V24.5198Z" fill="white"/>
<path d="M54.2453 18.7273C53.671 18.1631 53.015 17.6907 52.2997 17.3263C51.369 16.8509 50.4118 16.4302 49.433 16.0665C48.8427 15.8658 48.2639 15.632 47.6995 15.366C47.2964 15.1825 46.9147 14.9546 46.5611 14.6864C46.2899 14.4925 46.0725 14.2316 45.9298 13.9285C45.8071 13.6379 45.7471 13.3242 45.7539 13.0084C45.7354 12.686 45.8114 12.3653 45.9725 12.0863C46.1335 11.8073 46.3725 11.5826 46.6594 11.4402C47.39 11.0685 48.2015 10.8887 49.019 10.9174C49.9708 10.9043 50.9208 11.0043 51.8495 11.2154C52.5353 11.3758 53.2055 11.598 53.8521 11.8793L54.7214 7.95867C53.9133 7.6746 53.0846 7.45438 52.2428 7.30001C51.1033 7.06801 49.9434 6.95416 48.781 6.96022C46.3972 7.00553 44.5102 7.58578 43.12 8.70097C42.4419 9.237 41.9003 9.92886 41.5403 10.719C41.1803 11.5091 41.0123 12.3747 41.0502 13.2437C41.026 14.0992 41.1793 14.9504 41.5004 15.7424C41.7882 16.4046 42.2114 16.9979 42.7423 17.4831C43.3032 17.9897 43.9321 18.4139 44.6103 18.743C45.3823 19.1355 46.1752 19.4845 46.9854 19.7885C48.0538 20.1456 49.0741 20.6355 50.0229 21.2469C50.3035 21.4361 50.5342 21.6916 50.6947 21.9914C50.8552 22.2911 50.9408 22.626 50.944 22.9668C50.9669 23.2848 50.8973 23.6027 50.7437 23.8813C50.5902 24.1599 50.3594 24.3871 50.0798 24.535C49.2086 24.8974 48.2672 25.0547 47.3269 24.995C46.1934 25.0111 45.0627 24.8775 43.9635 24.5978C43.1018 24.3706 42.255 24.0895 41.4279 23.7561L40.6 27.797C41.3603 28.0861 42.136 28.3321 42.9234 28.534C44.3514 28.8785 45.8179 29.0332 47.2855 28.9941C49.9867 28.9941 52.0565 28.4818 53.495 27.4572C54.9336 26.4326 55.6614 24.9184 55.6787 22.9145C55.694 22.1001 55.5733 21.2889 55.3216 20.5151C55.0973 19.8465 54.7298 19.2361 54.2453 18.7273V18.7273Z" fill="white"/>
<path d="M205.024 18.7328C204.449 18.1696 203.793 17.6971 203.079 17.3312C202.143 16.8543 201.181 16.4334 200.197 16.0708C199.608 15.8701 199.031 15.6362 198.468 15.37C198.064 15.1863 197.68 14.9583 197.325 14.6901C197.066 14.4922 196.861 14.2313 196.73 13.9318C196.605 13.6415 196.543 13.3276 196.549 13.0113C196.531 12.689 196.608 12.3686 196.769 12.0898C196.93 11.811 197.168 11.5859 197.454 11.4423C198.185 11.0717 198.996 10.8919 199.814 10.9193C200.765 10.9058 201.715 11.0059 202.644 11.2174C203.332 11.3772 204.004 11.5995 204.652 11.8816L205.516 7.95916C204.708 7.67428 203.879 7.45394 203.037 7.30019C201.9 7.06786 200.741 6.95395 199.581 6.96024C197.194 6.96024 195.305 7.51287 193.915 8.61813C193.238 9.15528 192.697 9.84762 192.337 10.6379C191.977 11.4282 191.808 12.2937 191.845 13.163C191.82 14.0195 191.975 14.8716 192.3 15.6629C192.588 16.3241 193.009 16.9173 193.537 17.4044C194.1 17.909 194.728 18.3331 195.405 18.6649C196.179 19.0566 196.974 19.4058 197.785 19.7108C198.857 20.0932 199.875 20.6116 200.817 21.2537C201.099 21.4377 201.331 21.6891 201.494 21.9856C201.656 22.2821 201.744 22.6145 201.749 22.9534C201.772 23.2722 201.702 23.5909 201.547 23.8699C201.393 24.1488 201.161 24.3757 200.88 24.5224C200.009 24.886 199.067 25.0434 198.127 24.9826C196.995 24.9987 195.866 24.8651 194.769 24.5851C193.907 24.3587 193.06 24.0775 192.233 23.7431L191.4 27.7963C192.158 28.0858 192.932 28.3319 193.718 28.5338C195.148 28.8786 196.616 29.0334 198.085 28.994C200.786 28.994 202.856 28.4815 204.295 27.4564C205.733 26.4313 206.461 24.9164 206.478 22.9116C206.496 22.0966 206.375 21.2846 206.121 20.511C205.892 19.8425 205.517 19.2347 205.024 18.7328V18.7328Z" fill="white"/>
<path d="M69.5616 24.6322C68.8185 24.8259 68.0527 24.9175 67.2851 24.9046C66.0419 24.9046 65.162 24.5551 64.6453 23.8458C64.1286 23.1366 63.8677 21.9596 63.8677 20.3046V11.9269H71.0963V7.95903H63.8677V1.73999H59.1611V20.3457C59.1471 21.5679 59.2655 22.7881 59.5141 23.9846C59.7118 24.9668 60.1223 25.8933 60.7163 26.6984C61.3214 27.4703 62.1243 28.062 63.0389 28.4099C64.2039 28.8332 65.4379 29.032 66.6763 28.9958C67.7249 29.0133 68.7711 28.8888 69.7867 28.6257C70.5125 28.4281 71.225 28.1843 71.92 27.8959L71.1424 24.1234C70.6245 24.3202 70.0969 24.49 69.5616 24.6322V24.6322Z" fill="white"/>
<path d="M187.327 24.6322C186.582 24.8259 185.814 24.9175 185.045 24.9046C183.798 24.9046 182.916 24.5551 182.393 23.8458C181.87 23.1366 181.614 21.9596 181.614 20.3046V11.9269H188.865V7.95903H181.614V1.73999H176.901V20.3457C176.888 21.5676 177.005 22.7875 177.25 23.9846C177.443 24.9655 177.85 25.8919 178.439 26.6984C179.043 27.4688 179.844 28.0604 180.757 28.4099C181.925 28.8332 183.162 29.032 184.404 28.9958C185.453 29.0133 186.5 28.8888 187.516 28.6257C188.246 28.4288 188.962 28.185 189.66 27.8959L188.88 24.1234C188.511 24.2776 187.988 24.4472 187.327 24.6322Z" fill="white"/>
<path d="M165.024 6.95999C163.808 6.96008 162.603 7.19683 161.476 7.65734C160.316 8.1311 159.268 8.84561 158.399 9.75463C157.46 10.7539 156.73 11.9344 156.252 13.2256C155.684 14.7787 155.41 16.4256 155.443 18.0809C155.427 19.5574 155.639 21.0273 156.07 22.438C156.468 23.7113 157.127 24.8852 158.005 25.8828C158.92 26.8934 160.052 27.6774 161.315 28.1741C162.825 28.7516 164.431 29.031 166.046 28.9972C166.739 28.9947 167.432 28.9527 168.121 28.8714C168.8 28.7928 169.438 28.6931 170.03 28.5725C170.555 28.4669 171.074 28.3339 171.586 28.1741C171.958 28.0622 172.321 27.9201 172.67 27.7494L172.043 23.7802C171.308 24.0735 170.549 24.3016 169.776 24.4619C168.732 24.6819 167.667 24.7891 166.601 24.7817C164.63 24.7817 163.125 24.3203 162.088 23.3975C161.553 22.8964 161.122 22.2923 160.821 21.6206C160.52 20.9489 160.354 20.2232 160.334 19.486H173.936C173.936 19.2186 173.978 18.9198 173.993 18.5842C174.009 18.2486 173.993 17.9498 173.993 17.6824C173.993 14.1205 173.199 11.4464 171.612 9.66025C170.071 7.85134 167.861 6.95999 165.024 6.95999ZM160.412 15.9049C160.491 15.2898 160.635 14.6851 160.843 14.1013C161.042 13.527 161.342 12.994 161.73 12.5283C162.119 12.0704 162.596 11.696 163.13 11.4272C163.731 11.1325 164.393 10.9869 165.06 11.0025C165.693 10.9868 166.321 11.1178 166.897 11.3853C167.401 11.6329 167.844 11.9912 168.193 12.4339C168.563 12.8992 168.838 13.4338 169.003 14.0069C169.19 14.6252 169.282 15.2688 169.278 15.9154L160.412 15.9049Z" fill="white"/>
<path d="M131.639 7.54038C128.916 7.54038 126.885 8.31005 125.545 9.84939C124.205 11.3887 123.537 13.5154 123.54 16.2294V29H128.151V16.3136C128.145 15.6838 128.209 15.0554 128.341 14.4411C128.448 13.9053 128.669 13.4018 128.988 12.9684C129.312 12.5518 129.731 12.2279 130.206 12.0269C130.799 11.7812 131.433 11.6632 132.07 11.6798C132.692 11.6753 133.312 11.7441 133.919 11.8849C134.437 12.002 134.942 12.1784 135.423 12.4109L136.3 8.38719C135.7 8.17497 135.09 7.99936 134.471 7.86122C133.542 7.64053 132.592 7.53287 131.639 7.54038V7.54038Z" fill="white"/>
<path d="M120.496 27.9348C118.847 28.1965 117.123 28.521 115.394 28.7304C112.75 29.0392 110.064 29.2067 107.425 28.5315C105.225 27.9662 103.39 26.888 102.877 24.5326C102 20.4867 103.782 17.5609 108.165 16.9066C110.016 16.6292 111.92 16.6606 113.802 16.5559L115.811 16.4617C116.494 13.6877 114.918 11.4841 112.147 11.2643C109.659 11.1426 107.168 11.4327 104.776 12.1227C104.58 12.1698 104.379 12.2064 104.035 12.2745C104.035 11.0863 104.035 9.96624 104.035 8.85139C104.035 8.74147 104.263 8.56875 104.411 8.54258C107.515 7.87785 110.64 7.26023 113.828 7.67372C118.101 8.22853 120.364 10.4949 120.539 14.7188C120.729 19.0264 120.592 23.3445 120.597 27.6626C120.571 27.756 120.538 27.8471 120.496 27.9348V27.9348ZM115.88 19.6911C114.051 19.6911 112.332 19.6597 110.592 19.6911C110.044 19.7366 109.507 19.8747 109.006 20.0994C108.457 20.2857 107.989 20.6529 107.68 21.1396C107.371 21.6264 107.24 22.2032 107.309 22.774C107.377 24.1506 107.964 24.988 109.281 25.323C111.486 25.8935 113.665 25.6056 115.859 25.1921L115.88 19.6911Z" fill="white"/>
<path d="M96.8941 1.16H95.8706L88.322 16.0338L81.0294 1.16H80.0058H75.4V9.40889V29H80.0058V9.40889H81.0294L88.1941 22.5556L95.8706 9.40889H96.8941V29H101.5V9.40889V1.16H96.8941Z" fill="white"/>
<path d="M142.68 0H138.04V29H142.68V0Z" fill="white"/>
<path d="M149.271 8.70001H154.28L147.267 17.98L143.26 16.9489L149.271 8.70001Z" fill="white"/>
<path d="M149.933 28.42H154.86L147.295 18.56L143.26 19.546L149.933 28.42Z" fill="white"/>
<path d="M147.32 16.24H138.62V20.3H147.32V16.24Z" fill="white"/>
</svg>
